<svg xmlns="http://www.w3.org/2000/svg" viewBox="0 0 1400 900" width="1400" height="900" font-family="Heebo, Assistant, sans-serif">
  <defs>
    <linearGradient id="park-fill" x1="0" y1="0" x2="0.3" y2="1">
      <stop offset="0%" stop-color="#2D6B3F"/>
      <stop offset="40%" stop-color="#357A4A"/>
      <stop offset="100%" stop-color="#2A5E38"/>
    </linearGradient>
    <linearGradient id="park-fill2" x1="0" y1="0" x2="1" y2="1">
      <stop offset="0%" stop-color="#3A8050"/>
      <stop offset="100%" stop-color="#2D6B3F"/>
    </linearGradient>
    <linearGradient id="dev-zone" x1="0" y1="0" x2="0" y2="1">
      <stop offset="0%" stop-color="#C8B88A"/>
      <stop offset="100%" stop-color="#B8A87A"/>
    </linearGradient>
    <linearGradient id="gpark-fill" x1="0" y1="0" x2="0" y2="1">
      <stop offset="0%" stop-color="#2A3B32"/>
      <stop offset="100%" stop-color="#1E2821"/>
    </linearGradient>
    <filter id="pin-shadow">
      <feDropShadow dx="0" dy="3" stdDeviation="5" flood-color="#1E2821" flood-opacity="0.3"/>
    </filter>
    <filter id="label-shadow">
      <feDropShadow dx="0" dy="1" stdDeviation="3" flood-color="#000" flood-opacity="0.15"/>
    </filter>
    <pattern id="tree-dots" x="0" y="0" width="22" height="22" patternUnits="userSpaceOnUse">
      <circle cx="11" cy="11" r="5.5" fill="#246535" opacity="0.45"/>
    </pattern>
    <pattern id="tree-dots2" x="8" y="8" width="30" height="30" patternUnits="userSpaceOnUse">
      <circle cx="15" cy="15" r="8" fill="#1D5A2E" opacity="0.3"/>
    </pattern>
  </defs>

  <!-- ══ BACKGROUND ══ -->
  <rect width="1400" height="900" fill="#E8DFC8"/>

  <!-- ══ AYALON HIGHWAY — left vertical strip ══ -->
  <rect x="0" y="0" width="100" height="900" fill="#555045"/>
  <rect x="42" y="0" width="16" height="900" fill="#6A645A"/>
  <line x1="50" y1="0" x2="50" y2="900" stroke="#B8A87A" stroke-width="1.5" stroke-dasharray="20 12" opacity="0.4"/>
  <!-- Highway label -->
  <text transform="translate(28,600) rotate(-90)" fill="#D8D0C0" font-size="11" font-weight="300" letter-spacing="4" opacity="0.7">AYALON — אילון צפון</text>

  <!-- ══ ECOLOGICAL PARK — TOP, spanning most of width ══ -->
  <!-- Main park mass -->
  <path d="M 100 0 L 1400 0 L 1400 420 L 100 420 Z" fill="url(#park-fill)"/>
  <!-- Tree texture -->
  <path d="M 100 0 L 1400 0 L 1400 420 L 100 420 Z" fill="url(#tree-dots)"/>
  <path d="M 100 0 L 1400 0 L 1400 420 L 100 420 Z" fill="url(#tree-dots2)"/>
  <!-- Lighter meadow areas -->
  <ellipse cx="500" cy="180" rx="180" ry="90" fill="#3A8050" opacity="0.35"/>
  <ellipse cx="900" cy="250" rx="220" ry="100" fill="#3A8050" opacity="0.3"/>
  <ellipse cx="1200" cy="150" rx="130" ry="75" fill="#448B58" opacity="0.25"/>
  <!-- Walking paths through park -->
  <path d="M 150 200 Q 350 170 550 220 Q 750 270 950 200 Q 1100 150 1300 180" fill="none" stroke="#D8D0C0" stroke-width="2" opacity="0.3"/>
  <path d="M 200 350 Q 450 300 700 340 Q 900 370 1100 320" fill="none" stroke="#D8D0C0" stroke-width="1.5" opacity="0.25"/>
  <!-- Scattered trees (varying sizes) -->
  <circle cx="200" cy="100" r="16" fill="#1D5A2E" opacity="0.5"/>
  <circle cx="320" cy="70" r="20" fill="#246535" opacity="0.4"/>
  <circle cx="480" cy="130" r="18" fill="#1D5A2E" opacity="0.45"/>
  <circle cx="620" cy="80" r="22" fill="#246535" opacity="0.35"/>
  <circle cx="780" cy="160" r="15" fill="#1D5A2E" opacity="0.5"/>
  <circle cx="950" cy="100" r="24" fill="#246535" opacity="0.35"/>
  <circle cx="1100" cy="70" r="18" fill="#1D5A2E" opacity="0.45"/>
  <circle cx="1250" cy="130" r="20" fill="#246535" opacity="0.4"/>
  <circle cx="350" cy="300" r="14" fill="#1D5A2E" opacity="0.45"/>
  <circle cx="550" cy="350" r="17" fill="#246535" opacity="0.4"/>
  <circle cx="800" cy="310" r="20" fill="#1D5A2E" opacity="0.35"/>
  <circle cx="1050" cy="360" r="16" fill="#246535" opacity="0.4"/>
  <circle cx="1300" cy="300" r="19" fill="#1D5A2E" opacity="0.35"/>
  <!-- Park labels -->
  <text x="750" y="195" text-anchor="middle" fill="#F0EAD8" font-size="22" font-weight="200" letter-spacing="6" opacity="0.85">פארק אקולוגי</text>
  <text x="750" y="228" text-anchor="middle" fill="#F0EAD8" font-size="14" font-weight="300" letter-spacing="3" opacity="0.6">282 דונם</text>

  <!-- ══ DEVELOPMENT ZONE — sandy area between park and neighborhoods ══ -->
  <rect x="100" y="420" width="1300" height="200" fill="url(#dev-zone)"/>
  <!-- Grid roads within development -->
  <line x1="100" y1="520" x2="1400" y2="520" stroke="#A89870" stroke-width="10" opacity="0.6"/>
  <line x1="350" y1="420" x2="350" y2="620" stroke="#A89870" stroke-width="6" opacity="0.5"/>
  <line x1="570" y1="420" x2="570" y2="620" stroke="#A89870" stroke-width="6" opacity="0.5"/>
  <line x1="780" y1="420" x2="780" y2="620" stroke="#A89870" stroke-width="6" opacity="0.5"/>
  <line x1="990" y1="420" x2="990" y2="620" stroke="#A89870" stroke-width="6" opacity="0.5"/>
  <line x1="1200" y1="420" x2="1200" y2="620" stroke="#A89870" stroke-width="6" opacity="0.5"/>
  <!-- Development plots -->
  <rect x="115" y="430" width="220" height="80" rx="2" fill="#D4C8A0" stroke="#B8A87A" stroke-width="1" opacity="0.7"/>
  <rect x="365" y="430" width="190" height="80" rx="2" fill="#D4C8A0" stroke="#B8A87A" stroke-width="1" opacity="0.7"/>
  <rect x="585" y="430" width="180" height="80" rx="2" fill="#D4C8A0" stroke="#B8A87A" stroke-width="1" opacity="0.7"/>
  <rect x="795" y="430" width="180" height="80" rx="2" fill="#D4C8A0" stroke="#B8A87A" stroke-width="1" opacity="0.7"/>
  <rect x="1005" y="430" width="180" height="80" rx="2" fill="#D4C8A0" stroke="#B8A87A" stroke-width="1" opacity="0.7"/>
  <rect x="1215" y="430" width="170" height="80" rx="2" fill="#D4C8A0" stroke="#B8A87A" stroke-width="1" opacity="0.7"/>
  <rect x="115" y="535" width="220" height="70" rx="2" fill="#D4C8A0" stroke="#B8A87A" stroke-width="1" opacity="0.7"/>
  <rect x="365" y="535" width="190" height="70" rx="2" fill="#D4C8A0" stroke="#B8A87A" stroke-width="1" opacity="0.7"/>
  <rect x="585" y="535" width="180" height="70" rx="2" fill="#D4C8A0" stroke="#B8A87A" stroke-width="1" opacity="0.7"/>
  <rect x="795" y="535" width="180" height="70" rx="2" fill="#D4C8A0" stroke="#B8A87A" stroke-width="1" opacity="0.7"/>
  <rect x="1005" y="535" width="180" height="70" rx="2" fill="#D4C8A0" stroke="#B8A87A" stroke-width="1" opacity="0.7"/>
  <rect x="1215" y="535" width="170" height="70" rx="2" fill="#D4C8A0" stroke="#B8A87A" stroke-width="1" opacity="0.7"/>

  <!-- ══ MAIN ROAD separating dev zone from neighborhoods ══ -->
  <rect x="100" y="620" width="1300" height="24" fill="#8A8070"/>
  <line x1="100" y1="632" x2="1400" y2="632" stroke="#C8B88A" stroke-width="2" stroke-dasharray="16 10" opacity="0.5"/>

  <!-- ══ PROJECT BUILDINGS ROW — just below park ══ -->

  <!-- G-PARK — Tower + Boutique buildings -->
  <rect x="130" y="530" width="90" height="100" rx="2" fill="url(#gpark-fill)" filter="url(#pin-shadow)"/>
  <rect x="130" y="460" width="35" height="170" rx="2" fill="#1E2821" filter="url(#pin-shadow)"/>
  <!-- Building window lines -->
  <line x1="133" y1="480" x2="162" y2="480" stroke="#3D4F45" stroke-width="1" opacity="0.6"/>
  <line x1="133" y1="500" x2="162" y2="500" stroke="#3D4F45" stroke-width="1" opacity="0.6"/>
  <line x1="133" y1="520" x2="162" y2="520" stroke="#3D4F45" stroke-width="1" opacity="0.6"/>
  <line x1="133" y1="540" x2="162" y2="540" stroke="#3D4F45" stroke-width="1" opacity="0.6"/>
  <line x1="133" y1="560" x2="162" y2="560" stroke="#3D4F45" stroke-width="1" opacity="0.6"/>
  <line x1="133" y1="580" x2="162" y2="580" stroke="#3D4F45" stroke-width="1" opacity="0.6"/>
  <line x1="133" y1="600" x2="162" y2="600" stroke="#3D4F45" stroke-width="1" opacity="0.6"/>

  <!-- G-Park PIN marker -->
  <circle cx="175" cy="500" r="22" fill="#A58B75" opacity="0.25"/>
  <circle cx="175" cy="500" r="13" fill="#A58B75"/>
  <circle cx="175" cy="500" r="6" fill="#FAF7F0"/>

  <!-- G-PARK label -->
  <rect x="115" y="640" width="130" height="34" rx="3" fill="#FAF7F0" filter="url(#label-shadow)"/>
  <text x="180" y="662" text-anchor="middle" fill="#1E2821" font-size="14" font-weight="600" letter-spacing="1">G-Park</text>

  <!-- Connection line from G-Park to park -->
  <line x1="175" y1="460" x2="175" y2="420" stroke="#A58B75" stroke-width="2" stroke-dasharray="5 4" opacity="0.7"/>

  <!-- EVE -->
  <rect x="385" y="530" width="140" height="80" rx="2" fill="#7A9A82" filter="url(#pin-shadow)" opacity="0.85"/>
  <rect x="385" y="640" width="140" height="34" rx="3" fill="#F0EAD8" filter="url(#label-shadow)"/>
  <text x="455" y="662" text-anchor="middle" fill="#3D5A45" font-size="14" font-weight="500" letter-spacing="1">EVE</text>

  <!-- North Park -->
  <rect x="600" y="530" width="140" height="80" rx="2" fill="#7A9A82" filter="url(#pin-shadow)" opacity="0.8"/>
  <rect x="585" y="640" width="170" height="34" rx="3" fill="#F0EAD8" filter="url(#label-shadow)"/>
  <text x="670" y="662" text-anchor="middle" fill="#3D5A45" font-size="14" font-weight="500" letter-spacing="1">North Park</text>

  <!-- Avisroor -->
  <rect x="815" y="530" width="130" height="80" rx="2" fill="#7A9A82" filter="url(#pin-shadow)" opacity="0.75"/>
  <rect x="800" y="640" width="160" height="34" rx="3" fill="#F0EAD8" filter="url(#label-shadow)"/>
  <text x="880" y="662" text-anchor="middle" fill="#3D5A45" font-size="14" font-weight="500" letter-spacing="1">Avisroor</text>

  <!-- "קו ראשון לפארק" label between park and projects -->
  <rect x="280" y="400" width="200" height="28" rx="14" fill="#FAF7F0" opacity="0.85" filter="url(#label-shadow)"/>
  <text x="380" y="419" text-anchor="middle" fill="#2A3B32" font-size="11" font-weight="400" letter-spacing="2">קו ראשון לפארק</text>

  <!-- ══ NEIGHBORHOODS — bottom dense area ══ -->
  <rect x="100" y="680" width="1300" height="220" fill="#DDD5C0"/>

  <!-- Building blocks rows -->
  <!-- Row 1 -->
  <rect x="120" y="695" width="55" height="38" rx="1" fill="#C8C0AA" stroke="#B8B09A" stroke-width="0.5"/>
  <rect x="182" y="695" width="60" height="38" rx="1" fill="#C8C0AA" stroke="#B8B09A" stroke-width="0.5"/>
  <rect x="249" y="695" width="48" height="38" rx="1" fill="#C8C0AA" stroke="#B8B09A" stroke-width="0.5"/>
  <rect x="304" y="695" width="62" height="38" rx="1" fill="#C8C0AA" stroke="#B8B09A" stroke-width="0.5"/>
  <rect x="373" y="695" width="50" height="38" rx="1" fill="#C8C0AA" stroke="#B8B09A" stroke-width="0.5"/>
  <rect x="430" y="695" width="58" height="38" rx="1" fill="#C8C0AA" stroke="#B8B09A" stroke-width="0.5"/>
  <rect x="495" y="695" width="44" height="38" rx="1" fill="#C8C0AA" stroke="#B8B09A" stroke-width="0.5"/>
  <rect x="546" y="695" width="55" height="38" rx="1" fill="#C8C0AA" stroke="#B8B09A" stroke-width="0.5"/>
  <rect x="608" y="695" width="62" height="38" rx="1" fill="#C8C0AA" stroke="#B8B09A" stroke-width="0.5"/>
  <rect x="677" y="695" width="48" height="38" rx="1" fill="#C8C0AA" stroke="#B8B09A" stroke-width="0.5"/>
  <rect x="732" y="695" width="56" height="38" rx="1" fill="#C8C0AA" stroke="#B8B09A" stroke-width="0.5"/>
  <rect x="795" y="695" width="60" height="38" rx="1" fill="#C8C0AA" stroke="#B8B09A" stroke-width="0.5"/>
  <rect x="862" y="695" width="50" height="38" rx="1" fill="#C8C0AA" stroke="#B8B09A" stroke-width="0.5"/>
  <rect x="919" y="695" width="55" height="38" rx="1" fill="#C8C0AA" stroke="#B8B09A" stroke-width="0.5"/>
  <rect x="981" y="695" width="62" height="38" rx="1" fill="#C8C0AA" stroke="#B8B09A" stroke-width="0.5"/>
  <rect x="1050" y="695" width="48" height="38" rx="1" fill="#C8C0AA" stroke="#B8B09A" stroke-width="0.5"/>
  <!-- Row 2 -->
  <rect x="120" y="742" width="62" height="35" rx="1" fill="#C0B8A2" stroke="#B8B09A" stroke-width="0.5"/>
  <rect x="189" y="742" width="50" height="35" rx="1" fill="#C0B8A2" stroke="#B8B09A" stroke-width="0.5"/>
  <rect x="246" y="742" width="58" height="35" rx="1" fill="#C0B8A2" stroke="#B8B09A" stroke-width="0.5"/>
  <rect x="311" y="742" width="44" height="35" rx="1" fill="#C0B8A2" stroke="#B8B09A" stroke-width="0.5"/>
  <rect x="362" y="742" width="55" height="35" rx="1" fill="#C0B8A2" stroke="#B8B09A" stroke-width="0.5"/>
  <rect x="424" y="742" width="60" height="35" rx="1" fill="#C0B8A2" stroke="#B8B09A" stroke-width="0.5"/>
  <rect x="491" y="742" width="48" height="35" rx="1" fill="#C0B8A2" stroke="#B8B09A" stroke-width="0.5"/>
  <rect x="546" y="742" width="56" height="35" rx="1" fill="#C0B8A2" stroke="#B8B09A" stroke-width="0.5"/>
  <rect x="609" y="742" width="62" height="35" rx="1" fill="#C0B8A2" stroke="#B8B09A" stroke-width="0.5"/>
  <rect x="678" y="742" width="50" height="35" rx="1" fill="#C0B8A2" stroke="#B8B09A" stroke-width="0.5"/>
  <rect x="735" y="742" width="55" height="35" rx="1" fill="#C0B8A2" stroke="#B8B09A" stroke-width="0.5"/>
  <rect x="797" y="742" width="62" height="35" rx="1" fill="#C0B8A2" stroke="#B8B09A" stroke-width="0.5"/>
  <rect x="866" y="742" width="48" height="35" rx="1" fill="#C0B8A2" stroke="#B8B09A" stroke-width="0.5"/>
  <rect x="921" y="742" width="56" height="35" rx="1" fill="#C0B8A2" stroke="#B8B09A" stroke-width="0.5"/>
  <rect x="984" y="742" width="60" height="35" rx="1" fill="#C0B8A2" stroke="#B8B09A" stroke-width="0.5"/>
  <!-- Row 3 -->
  <rect x="120" y="786" width="55" height="36" rx="1" fill="#C8C0AA" stroke="#B8B09A" stroke-width="0.5"/>
  <rect x="182" y="786" width="60" height="36" rx="1" fill="#C8C0AA" stroke="#B8B09A" stroke-width="0.5"/>
  <rect x="249" y="786" width="48" height="36" rx="1" fill="#C8C0AA" stroke="#B8B09A" stroke-width="0.5"/>
  <rect x="304" y="786" width="58" height="36" rx="1" fill="#C8C0AA" stroke="#B8B09A" stroke-width="0.5"/>
  <rect x="369" y="786" width="55" height="36" rx="1" fill="#C8C0AA" stroke="#B8B09A" stroke-width="0.5"/>
  <rect x="431" y="786" width="50" height="36" rx="1" fill="#C8C0AA" stroke="#B8B09A" stroke-width="0.5"/>
  <rect x="488" y="786" width="62" height="36" rx="1" fill="#C8C0AA" stroke="#B8B09A" stroke-width="0.5"/>
  <rect x="557" y="786" width="48" height="36" rx="1" fill="#C8C0AA" stroke="#B8B09A" stroke-width="0.5"/>
  <rect x="612" y="786" width="56" height="36" rx="1" fill="#C8C0AA" stroke="#B8B09A" stroke-width="0.5"/>
  <rect x="675" y="786" width="60" height="36" rx="1" fill="#C8C0AA" stroke="#B8B09A" stroke-width="0.5"/>
  <rect x="742" y="786" width="48" height="36" rx="1" fill="#C8C0AA" stroke="#B8B09A" stroke-width="0.5"/>
  <rect x="797" y="786" width="55" height="36" rx="1" fill="#C8C0AA" stroke="#B8B09A" stroke-width="0.5"/>
  <rect x="859" y="786" width="62" height="36" rx="1" fill="#C8C0AA" stroke="#B8B09A" stroke-width="0.5"/>
  <rect x="928" y="786" width="50" height="36" rx="1" fill="#C8C0AA" stroke="#B8B09A" stroke-width="0.5"/>

  <!-- Neighborhood labels -->
  <text x="250" y="860" text-anchor="middle" fill="#7A7060" font-size="12" font-weight="300" letter-spacing="1.5" opacity="0.75">רמת אביב ג׳</text>
  <text x="530" y="860" text-anchor="middle" fill="#7A7060" font-size="12" font-weight="300" letter-spacing="1.5" opacity="0.75">נווה גן</text>
  <text x="780" y="860" text-anchor="middle" fill="#7A7060" font-size="12" font-weight="300" letter-spacing="1.5" opacity="0.75">אפקה</text>
  <text x="1020" y="860" text-anchor="middle" fill="#7A7060" font-size="12" font-weight="300" letter-spacing="1.5" opacity="0.75">תל ברוך צפון</text>
  <!-- Park neighborhood label -->
  <text x="1250" y="390" text-anchor="middle" fill="#D8E8D0" font-size="12" font-weight="300" letter-spacing="1.5" opacity="0.55">קריית שאול</text>

  <!-- ══ COMPASS ROSE ══ -->
  <g transform="translate(1340,60)">
    <circle cx="0" cy="0" r="24" fill="none" stroke="#F0EAD8" stroke-width="1" opacity="0.5"/>
    <path d="M0 -18 L3 -6 L0 -10 L-3 -6 Z" fill="#F0EAD8" opacity="0.8"/>
    <path d="M0 18 L3 6 L0 10 L-3 6 Z" fill="#F0EAD8" opacity="0.35"/>
    <text x="0" y="-27" text-anchor="middle" fill="#F0EAD8" font-size="10" font-weight="400" opacity="0.8">N</text>
  </g>

  <!-- ══ SCALE BAR ══ -->
  <g transform="translate(1180,875)">
    <line x1="0" y1="0" x2="120" y2="0" stroke="#7A7060" stroke-width="1.5" opacity="0.6"/>
    <line x1="0" y1="-4" x2="0" y2="4" stroke="#7A7060" stroke-width="1.5" opacity="0.6"/>
    <line x1="120" y1="-4" x2="120" y2="4" stroke="#7A7060" stroke-width="1.5" opacity="0.6"/>
    <text x="60" y="-8" text-anchor="middle" fill="#7A7060" font-size="10" font-weight="300" opacity="0.7">500 מ׳</text>
  </g>

  <!-- ══ LEGEND ══ -->
  <g transform="translate(120, 875)">
    <rect x="0" y="-8" width="14" height="14" rx="2" fill="#1E2821"/>
    <text x="20" y="4" fill="#5A5550" font-size="11" font-weight="400">G-Park Wellness</text>
    <rect x="170" y="-8" width="14" height="14" rx="2" fill="#7A9A82"/>
    <text x="190" y="4" fill="#5A5550" font-size="11" font-weight="400">פרויקטים סמוכים</text>
    <rect x="340" y="-8" width="14" height="14" rx="2" fill="#2D6B3F"/>
    <text x="360" y="4" fill="#5A5550" font-size="11" font-weight="400">פארק אקולוגי 282 דונם</text>
  </g>
</svg>
