<?xml version="1.0" standalone="no"?>
<!DOCTYPE svg PUBLIC "-//W3C//DTD SVG 20010904//EN"
 "http://www.w3.org/TR/2001/REC-SVG-20010904/DTD/svg10.dtd">
<svg version="1.0" xmlns="http://www.w3.org/2000/svg"
 width="717.000000pt" height="427.000000pt" viewBox="0 0 717.000000 427.000000"
 preserveAspectRatio="xMidYMid meet">

<g transform="translate(0.000000,427.000000) scale(0.100000,-0.100000)"
fill="#000000" stroke="none">
<path d="M2190 3083 c-256 -43 -679 -407 -808 -695 -33 -74 -44 -118 -46 -182
-2 -109 61 -173 158 -161 104 13 208 70 467 256 78 55 142 99 145 97 9 -9 -88
-224 -108 -241 -12 -10 -43 -30 -68 -45 -78 -45 -234 -168 -284 -223 -86 -95
-136 -186 -136 -245 0 -30 41 -74 69 -74 69 0 181 92 284 232 62 85 78 110
148 238 29 52 60 101 68 107 47 37 240 113 288 113 25 0 31 17 9 26 -17 7
-124 -21 -200 -52 -33 -13 -62 -22 -64 -19 -3 3 7 35 23 73 105 250 100 296
-18 184 -188 -178 -489 -360 -613 -370 -57 -4 -62 -3 -82 23 -75 95 51 360
277 585 143 142 325 268 447 310 73 26 105 25 139 -2 25 -19 27 -26 23 -78 -3
-46 -12 -68 -46 -119 -45 -68 -50 -81 -29 -81 34 0 103 117 113 193 10 70 -10
115 -60 138 -41 19 -50 20 -96 12z m-230 -1011 c0 -16 -93 -169 -147 -241 -66
-89 -172 -196 -203 -206 -12 -4 -27 -1 -36 6 -56 47 110 269 296 397 76 51 90
58 90 44z"/>
<path d="M3030 2929 c-171 -21 -345 -85 -455 -169 -61 -45 -101 -114 -91 -153
7 -30 56 -60 88 -55 34 5 33 27 -1 39 -46 16 -41 47 17 101 92 86 263 162 424
188 103 17 288 9 348 -15 102 -41 158 -116 145 -195 -20 -120 -172 -246 -397
-331 -79 -30 -216 -69 -242 -69 -20 0 18 82 135 292 53 95 57 109 34 128 -26
21 -48 -11 -151 -214 -53 -105 -101 -197 -107 -204 -7 -9 -32 -12 -76 -11 -42
2 -66 -2 -69 -9 -4 -14 39 -32 79 -32 16 0 29 -4 29 -9 0 -6 -12 -46 -26 -90
-25 -78 -29 -131 -9 -138 20 -6 37 15 46 58 6 24 24 74 41 112 25 53 37 68 57
72 14 3 79 19 143 36 187 49 319 108 436 197 210 158 183 378 -55 452 -79 24
-234 33 -343 19z"/>
<path d="M4673 2737 c-11 -12 -46 -62 -78 -111 -83 -127 -117 -157 -216 -195
-88 -34 -181 -82 -238 -125 -19 -14 -36 -24 -37 -23 -2 2 3 25 11 52 12 40 13
51 2 62 -10 10 -23 3 -69 -41 -106 -99 -274 -197 -313 -183 -19 8 -19 44 0 90
26 63 -10 64 -93 3 -72 -53 -134 -86 -162 -86 -79 0 96 174 197 195 26 5 35 2
56 -21 16 -17 31 -25 41 -21 23 9 20 30 -10 62 -23 25 -29 27 -77 21 -77 -10
-151 -48 -210 -108 -57 -58 -82 -114 -67 -153 19 -50 73 -43 175 24 89 59 85
57 85 26 0 -14 11 -37 26 -51 39 -40 93 -26 219 58 33 22 72 52 86 65 39 36
42 15 7 -42 -36 -58 -49 -125 -25 -125 9 0 35 23 59 50 88 104 244 208 358
241 25 7 51 17 58 22 29 22 20 -7 -36 -119 -78 -156 -89 -191 -69 -211 14 -14
18 -13 42 11 17 18 24 33 20 45 -7 23 79 192 205 401 98 162 107 182 87 198
-11 9 -18 7 -34 -11z"/>
<path d="M4805 2418 c-16 -5 -86 -37 -155 -71 -164 -81 -166 -91 -38 -140 175
-67 285 -85 399 -68 84 13 177 52 210 87 33 35 17 40 -29 9 -118 -78 -368 -75
-538 7 -27 13 -48 27 -47 32 1 5 56 31 122 59 93 37 121 54 121 68 0 24 -9 28
-45 17z"/>
<path d="M3268 1762 l-48 -3 0 -75 0 -74 56 0 c34 0 53 4 49 10 -3 6 -24 10
-46 10 -35 0 -39 3 -39 25 0 22 4 25 35 25 19 0 35 5 35 10 0 6 -16 10 -35 10
-30 0 -35 3 -35 24 0 23 5 25 48 28 26 2 43 5 37 8 -5 3 -31 4 -57 2z"/>
<path d="M3428 1758 c-21 -7 -28 -16 -28 -34 0 -20 9 -29 46 -44 56 -24 54
-45 -5 -44 -45 1 -55 -12 -17 -22 35 -9 68 -1 80 19 15 24 -2 49 -45 63 -19 7
-34 17 -33 23 3 32 5 33 40 26 22 -4 34 -3 30 3 -9 15 -39 19 -68 10z"/>
<path d="M4683 1760 c-34 -14 -56 -54 -48 -89 16 -74 135 -83 135 -11 0 17 -5
30 -11 30 -6 0 -9 -6 -6 -14 3 -8 0 -22 -7 -31 -18 -26 -67 -16 -85 17 -14 25
-14 29 6 55 17 23 27 28 59 26 22 -2 34 1 28 6 -16 15 -48 20 -71 11z"/>
<path d="M2190 1753 c1 -20 49 -138 57 -140 6 -2 18 21 28 52 9 31 20 53 24
50 3 -4 13 -27 21 -52 8 -26 20 -48 26 -50 7 -2 23 28 37 72 17 48 22 75 14
72 -7 -2 -19 -23 -27 -46 -8 -24 -19 -44 -24 -44 -5 -1 -15 19 -24 46 -8 26
-21 47 -27 47 -7 0 -18 -22 -25 -50 -7 -27 -16 -50 -20 -50 -5 0 -16 23 -25
50 -9 28 -21 50 -26 50 -5 0 -9 -3 -9 -7z"/>
<path d="M2472 1688 l3 -73 58 -3 c33 -2 56 1 54 5 -3 5 -23 10 -44 11 -44 3
-58 14 -50 36 4 10 19 16 42 16 19 0 35 5 35 10 0 6 -18 10 -41 10 -36 0 -40
2 -37 23 2 18 11 23 53 28 l50 6 -63 1 -63 2 3 -72z"/>
<path d="M2660 1685 l0 -75 50 0 c28 0 50 5 50 10 0 6 -18 10 -40 10 l-40 0 0
65 c0 37 -4 65 -10 65 -6 0 -10 -32 -10 -75z"/>
<path d="M2830 1685 l0 -75 50 0 c28 0 50 4 50 9 0 5 -17 9 -37 8 l-38 -2 -3
68 c-4 91 -22 85 -22 -8z"/>
<path d="M3000 1691 c0 -39 5 -73 10 -76 6 -4 10 13 10 44 0 28 4 51 8 51 5 0
28 -23 52 -51 36 -42 45 -48 52 -35 12 21 6 127 -7 124 -5 -2 -9 -22 -7 -45 1
-24 -2 -43 -8 -43 -5 0 -26 23 -47 50 -52 69 -63 66 -63 -19z"/>
<path d="M3587 1753 c-4 -3 -7 -17 -7 -30 0 -19 10 -28 45 -43 25 -11 45 -24
45 -29 0 -19 -37 -32 -64 -21 -14 5 -26 6 -26 1 0 -23 67 -28 94 -8 28 20 12
52 -35 71 -29 12 -39 21 -37 34 3 13 13 16 41 15 23 -2 35 1 32 7 -7 11 -78
14 -88 3z"/>
<path d="M3850 1685 l0 -75 57 0 c31 0 54 2 52 5 -6 5 -45 13 -71 14 -15 1
-18 11 -18 66 0 37 -4 65 -10 65 -6 0 -10 -32 -10 -75z"/>
<path d="M4020 1691 c0 -39 5 -73 10 -76 6 -4 10 22 10 69 0 44 -4 76 -10 76
-6 0 -10 -30 -10 -69z"/>
<path d="M4126 1723 c8 -21 23 -55 31 -76 9 -21 20 -36 25 -35 17 6 78 148 64
148 -7 0 -21 -21 -31 -47 -26 -71 -32 -72 -60 -10 -13 31 -29 57 -35 57 -6 0
-4 -16 6 -37z"/>
<path d="M4320 1691 c0 -39 5 -73 10 -76 6 -4 10 22 10 69 0 44 -4 76 -10 76
-6 0 -10 -30 -10 -69z"/>
<path d="M4421 1691 c-1 -39 3 -72 9 -76 6 -4 10 12 10 43 0 27 3 51 6 55 3 3
25 -17 47 -45 61 -75 67 -73 67 16 0 44 -4 76 -10 76 -5 0 -10 -22 -10 -50 0
-27 -4 -50 -8 -50 -4 0 -25 23 -46 50 -52 68 -63 65 -65 -19z"/>
</g>
</svg>
